<svg width="128" height="128" viewBox="0 0 128 128" fill="none" xmlns="http://www.w3.org/2000/svg">
  <rect width="128" height="128" rx="24" fill="#0ea5e9"/>
  <path d="M64 24C42.46 24 25 41.46 25 63C25 84.54 42.46 102 64 102C85.54 102 103 84.54 103 63C103 41.46 85.54 24 64 24ZM64 92C47.98 92 35 79.02 35 63C35 46.98 47.98 34 64 34C80.02 34 93 46.98 93 63C93 79.02 80.02 92 64 92Z" fill="white"/>
  <path d="M64 44C53.51 44 45 52.51 45 63C45 73.49 53.51 82 64 82C74.49 82 83 73.49 83 63C83 52.51 74.49 44 64 44ZM64 72C59.03 72 55 67.97 55 63C55 58.03 59.03 54 64 54C68.97 54 73 58.03 73 63C73 67.97 68.97 72 64 72Z" fill="white"/>
</svg>
